<svg id="Layer_1" data-name="Layer 1" xmlns="http://www.w3.org/2000/svg" xmlns:xlink="http://www.w3.org/1999/xlink" viewBox="0 0 796.4 796.4"><defs><style>.cls-1{fill:none;}.cls-2{fill:#fff;}.cls-3{clip-path:url(#clip-path);}.cls-4{isolation:isolate;font-size:21px;fill:#1d1d1b;font-family:Gilroy-Bold, Gilroy;font-weight:700;}.cls-5{letter-spacing:-0.06em;}.cls-6{letter-spacing:-0.01em;}.cls-7{letter-spacing:0.01em;}.cls-8{letter-spacing:-0.01em;}.cls-9{letter-spacing:0em;}.cls-10{letter-spacing:-0.01em;}.cls-11{letter-spacing:0em;}.cls-12{letter-spacing:-0.04em;}.cls-13{letter-spacing:-0.02em;}.cls-14{letter-spacing:0em;}.cls-15{letter-spacing:-0.02em;}.cls-16{letter-spacing:0em;}</style><clipPath id="clip-path" transform="translate(359.2 9.2)"><rect class="cls-1" x="45.7" y="46.8" width="330.4" height="335.4"/></clipPath></defs><rect class="cls-2" x="381" y="21.9" width="108.7" height="28.3"/><rect class="cls-2" x="676.1" y="21.9" width="87" height="28.3"/><rect class="cls-2" x="687.1" y="101.9" width="81.2" height="28.3"/><rect class="cls-2" x="640" y="163.9" width="73.7" height="28.3"/><rect class="cls-2" x="581.8" y="220.9" width="67.3" height="28.3"/><rect class="cls-2" x="519.7" y="281.9" width="63.5" height="28.3"/><rect class="cls-2" x="453.2" y="344.9" width="66.5" height="28.3"/><rect class="cls-2" x="664.4" y="397.9" width="74.5" height="28.3"/><polygon points="394.7 401.8 394.7 57.4 401.8 57.4 401.8 394.7 739 394.7 739 401.8 394.7 401.8"/><path class="cls-2" d="M40.6,50.2V387.4H377.8v3.1H37.5V50.2h3.1m4-4H33.5V394.6H381.9V383.5H44.6V46.2Z" transform="translate(359.2 9.2)"/><polygon points="387 63.7 398.2 44.2 409.5 63.7 387 63.7"/><path class="cls-2" d="M39,39l7.8,13.5H31.2L39,39m0-8-3.5,6L27.7,50.5l-3.5,6H53.6l-3.5-6L42.5,37,39,31Z" transform="translate(359.2 9.2)"/><polygon points="732.7 387 752.2 398.2 732.7 409.5 732.7 387"/><path class="cls-2" d="M375.5,381.2,389,389l-13.5,7.8V381.2m-4-6.9v29.4l6-3.5,13.5-7.8,6-3.5-6-3.5-13.5-7.8-6-3.3Z" transform="translate(359.2 9.2)"/><g class="cls-3"><path d="M39,626.3a235.77,235.77,0,0,1-167.8-69.5,237.32,237.32,0,0,1,0-335.6A235.77,235.77,0,0,1,39,151.7a235.77,235.77,0,0,1,167.8,69.5,237.32,237.32,0,0,1,0,335.6A235.77,235.77,0,0,1,39,626.3Zm0-464.4a225.55,225.55,0,0,0-160.6,66.5,227.18,227.18,0,0,0,0,321.2A225.55,225.55,0,0,0,39,616.1a225.55,225.55,0,0,0,160.6-66.5,227.18,227.18,0,0,0,0-321.2A226,226,0,0,0,39,161.9Z" transform="translate(359.2 9.2)"/><path class="cls-2" d="M39,153.7a234,234,0,0,1,166.4,68.9A233.8,233.8,0,0,1,274.3,389a233.39,233.39,0,0,1-68.9,166.4A233.39,233.39,0,0,1,39,624.3a234,234,0,0,1-166.4-68.9,235.39,235.39,0,0,1,0-332.8A234.15,234.15,0,0,1,39,153.7m0,464.4A227.52,227.52,0,0,0,201,551a229.11,229.11,0,0,0,0-324A227.52,227.52,0,0,0,39,159.9,227.94,227.94,0,0,0-123,227a229.11,229.11,0,0,0,0,324A227.52,227.52,0,0,0,39,618.1m0-468.4a237.75,237.75,0,0,0-169.2,70.1,239.25,239.25,0,0,0,0,338.4A237.75,237.75,0,0,0,39,628.3a237.75,237.75,0,0,0,169.2-70.1,239.25,239.25,0,0,0,0-338.4A237.75,237.75,0,0,0,39,149.7Zm0,464.4a223.52,223.52,0,0,1-159.1-65.9,225,225,0,0,1,0-318.2A223.52,223.52,0,0,1,39,164.1,223.52,223.52,0,0,1,198.1,230a225,225,0,0,1,0,318.2A223.35,223.35,0,0,1,39,614.1Z" transform="translate(359.2 9.2)"/><path d="M39,540.8c-83.7,0-151.8-68.1-151.8-151.8S-44.7,237.2,39,237.2,190.8,305.3,190.8,389,122.7,540.8,39,540.8Zm0-293.3c-78,0-141.5,63.5-141.5,141.5S-39,530.5,39,530.5,180.5,467.1,180.5,389A141.56,141.56,0,0,0,39,247.5Z" transform="translate(359.2 9.2)"/><path class="cls-2" d="M39,239.2c82.6,0,149.8,67.2,149.8,149.8S121.6,538.8,39,538.8-110.8,471.6-110.8,389-43.6,239.2,39,239.2m0,293.3c79.1,0,143.5-64.4,143.5-143.5S118.2,245.5,39,245.5-104.5,309.9-104.5,389-40.1,532.5,39,532.5m0-297.3c-84.8,0-153.8,69-153.8,153.8S-45.8,542.8,39,542.8s153.8-69,153.8-153.8S123.8,235.2,39,235.2Zm0,293.3c-76.9,0-139.5-62.6-139.5-139.5S-37.9,249.5,39,249.5,178.5,312.1,178.5,389,115.9,528.5,39,528.5Z" transform="translate(359.2 9.2)"/><path d="M34,711.9a320.81,320.81,0,0,1-228.3-94.6,322.78,322.78,0,0,1,0-456.6A320.81,320.81,0,0,1,34,66.1a320.81,320.81,0,0,1,228.3,94.6,322.78,322.78,0,0,1,0,456.6A320.81,320.81,0,0,1,34,711.9ZM34,76.4A310.18,310.18,0,0,0-187,168c-59,59.1-91.6,137.5-91.6,221.1A310.59,310.59,0,0,0-187,610.2,310.6,310.6,0,0,0,34,701.8a310.59,310.59,0,0,0,221.1-91.6,312.64,312.64,0,0,0,0-442.2A310.59,310.59,0,0,0,34,76.4Z" transform="translate(359.2 9.2)"/><path class="cls-2" d="M34,68.2a318.84,318.84,0,0,1,226.9,94,320.85,320.85,0,0,1,0,453.8A318.84,318.84,0,0,1,34,710a318.84,318.84,0,0,1-226.9-94,320.85,320.85,0,0,1,0-453.8A318.42,318.42,0,0,1,34,68.2m0,635.4a312.88,312.88,0,0,0,222.5-92.1,314.81,314.81,0,0,0,0-445A312.88,312.88,0,0,0,34,74.4a312.88,312.88,0,0,0-222.5,92.1C-248,225.9-280.6,305-280.6,389a312.88,312.88,0,0,0,92.1,222.5A312.88,312.88,0,0,0,34,703.6M34,64.2a322.76,322.76,0,0,0-229.7,95.1,324.71,324.71,0,0,0,0,459.4A322.61,322.61,0,0,0,34,713.9a322.44,322.44,0,0,0,229.7-95.2,324.71,324.71,0,0,0,0-459.4C202.4,97.9,120.8,64.2,34,64.2Zm0,635.4a308.21,308.21,0,0,1-219.6-91,308.55,308.55,0,0,1-91-219.6,308.21,308.21,0,0,1,91-219.6A308.21,308.21,0,0,1,34,78.4a308.21,308.21,0,0,1,219.6,91,310.47,310.47,0,0,1,0,439.2A308.21,308.21,0,0,1,34,699.6Z" transform="translate(359.2 9.2)"/><path d="M39,785.2a394.6,394.6,0,0,1-280.1-116A396.24,396.24,0,0,1-326,543.3a392.67,392.67,0,0,1-31.1-154.2A394.45,394.45,0,0,1-326,234.9,395.13,395.13,0,0,1-241.1,109,396.24,396.24,0,0,1-115.2,24.1,391.08,391.08,0,0,1,39-7.2,392.76,392.76,0,0,1,193.2,24a395.13,395.13,0,0,1,125.9,84.9A394.6,394.6,0,0,1,404,234.8,392.67,392.67,0,0,1,435.1,389,394.45,394.45,0,0,1,404,543.2a395.13,395.13,0,0,1-84.9,125.9A395.24,395.24,0,0,1,39,785.2ZM39,3.1a384.71,384.71,0,0,0-272.9,113,382.25,382.25,0,0,0-82.7,122.7,387.43,387.43,0,0,0,0,300.4A385.94,385.94,0,0,0,39,775,384.71,384.71,0,0,0,311.9,662a383.87,383.87,0,0,0,82.7-122.7A382.69,382.69,0,0,0,425,389a383.89,383.89,0,0,0-30.3-150.2A385.51,385.51,0,0,0,39,3.1Z" transform="translate(359.2 9.2)"/><path class="cls-2" d="M39-5.2a390.83,390.83,0,0,1,153.4,31,394.15,394.15,0,0,1,125.3,84.5,394.15,394.15,0,0,1,84.5,125.3,395,395,0,0,1,0,306.8,394.15,394.15,0,0,1-84.5,125.3,394.15,394.15,0,0,1-125.3,84.5A390.83,390.83,0,0,1,39,783.2a390.83,390.83,0,0,1-153.4-31,394.15,394.15,0,0,1-125.3-84.5,394.15,394.15,0,0,1-84.5-125.3,395,395,0,0,1,0-306.8,394.15,394.15,0,0,1,84.5-125.3A394.15,394.15,0,0,1-114.4,25.8,392.62,392.62,0,0,1,39-5.2M39,777A386.94,386.94,0,0,0,313.3,663.4a387.69,387.69,0,0,0,0-548.6A384.61,384.61,0,0,0,190,31.6,384,384,0,0,0,39,1.1,386.94,386.94,0,0,0-235.3,114.7a387.69,387.69,0,0,0,0,548.6A387.59,387.59,0,0,0,39,777M39-9.2A395,395,0,0,0-116,22.1a399.28,399.28,0,0,0-126.6,85.3A398.7,398.7,0,0,0-327.9,544a399.28,399.28,0,0,0,85.3,126.6A397.31,397.31,0,0,0,39,787.2a395,395,0,0,0,155-31.3,399.28,399.28,0,0,0,126.6-85.3A396,396,0,0,0,405.9,544a399.44,399.44,0,0,0,0-310A399,399,0,0,0,194,22.1,396.75,396.75,0,0,0,39-9.2ZM39,773a381.69,381.69,0,0,1-149.4-30.2,380.84,380.84,0,0,1-122-82.3,383.57,383.57,0,0,1-82.3-122,384.64,384.64,0,0,1,0-298.8,380.84,380.84,0,0,1,82.3-122,383.57,383.57,0,0,1,122-82.3A378.24,378.24,0,0,1,39,5.1,381.69,381.69,0,0,1,188.4,35.3a380.84,380.84,0,0,1,122,82.3,383.57,383.57,0,0,1,82.3,122,384.64,384.64,0,0,1,0,298.8,380.84,380.84,0,0,1-82.3,122,383.57,383.57,0,0,1-122,82.3A380,380,0,0,1,39,773Z" transform="translate(359.2 9.2)"/></g><rect x="35.52" y="381.91" width="14" height="7.1" transform="translate(97.31 154.4) rotate(-45.42)"/><path class="cls-2" d="M44.9,380.8l2.2,2.2-7,7.1-2.2-2.2,7-7.1m0-5.7-2.8,2.8-7,7.1-2.8,2.8,2.8,2.8,2.2,2.2,2.8,2.8,2.8-2.8,7-7.1,2.8-2.8-2.8-2.8-2.2-2.2-2.8-2.8Z" transform="translate(359.2 9.2)"/><path d="M55.8,366.9l16.5-16.8,5.1,5L60.9,371.9Zm27.4-27.8,16.5-16.8,5.1,5L88.3,344.1Zm27.4-27.8,16.5-16.8,5.1,5-16.5,16.8ZM138,283.4l16.5-16.8,5.1,5-16.5,16.8Zm27.5-27.8L182,238.8l5.1,5-16.5,16.8Zm27.4-27.8L209.4,211l5.1,5L198,232.8ZM220.3,200l16.5-16.8,5.1,5L225.4,205Zm27.4-27.8,16.5-16.8,5.1,5-16.5,16.8Zm27.4-27.9,16.5-16.8,5.1,5-16.5,16.8Zm27.4-27.8L319,99.8l5.1,5-16.5,16.8Zm27.4-27.8,16.5-16.8,5.1,5L335,93.7Z" transform="translate(359.2 9.2)"/><path class="cls-2" d="M346.5,74.8l2.2,2.2L335,90.9l-2.2-2.2,13.7-13.9m-27.4,27.8,2.2,2.2-13.7,13.9-2.2-2.2,13.7-13.9m-27.5,27.8,2.2,2.2-13.7,13.9-2.2-2.2,13.7-13.9m-27.4,27.8,2.2,2.2-13.7,13.9-2.2-2.2,13.7-13.9M236.8,186l2.2,2.2-13.7,13.9-2.2-2.2L236.8,186m-27.4,27.9,2.2,2.2L197.9,230l-2.2-2.2,13.7-13.9M182,241.7l2.2,2.2-13.7,13.9-2.2-2.2L182,241.7m-27.4,27.8,2.2,2.2-13.7,13.9-2.2-2.2,13.7-13.9m-27.4,27.8,2.2,2.2-13.7,13.9-2.2-2.2,13.7-13.9M99.8,325.2l2.2,2.2L88.3,341.3l-2.2-2.2,13.7-13.9M72.3,353l2.2,2.2L60.8,369.1l-2.2-2.2L72.3,353M346.4,69.1l-2.8,2.8L329.9,85.8l-2.8,2.8,2.8,2.8,2.2,2.2,2.8,2.8,2.8-2.8,13.7-13.9,2.8-2.8-2.9-2.8-2.2-2.2-2.7-2.8ZM319,96.9l-2.8,2.8-13.7,13.9-2.8,2.8,2.9,2.8,2.2,2.2,2.8,2.8,2.8-2.8,13.7-13.9,2.8-2.8-2.8-2.8-2.2-2.2L319,96.9Zm-27.4,27.8-2.8,2.8-13.7,13.9-2.8,2.8,2.8,2.8,2.2,2.2,2.8,2.8,2.8-2.8,13.7-13.9,2.8-2.8-2.9-2.8-2.2-2.2-2.7-2.8Zm-27.4,27.9-2.8,2.8-13.7,13.9-2.8,2.8,2.9,2.8,2.2,2.2,2.8,2.8,2.8-2.8,13.7-13.9,2.8-2.8-2.9-2.8-2.2-2.2-2.8-2.8Zm-27.4,27.8-2.8,2.8-13.7,13.9-2.8,2.8,2.8,2.8,2.2,2.2,2.8,2.8,2.8-2.8L241.8,191l2.8-2.8-2.8-2.8-2.2-2.2-2.8-2.8Zm-27.4,27.8-2.8,2.8-13.8,14-2.8,2.8,2.8,2.8,2.2,2.2,2.8,2.8,2.8-2.8,13.7-13.9,2.8-2.8-2.8-2.8-2.2-2.2-2.7-2.9ZM182,236l-2.8,2.8-13.7,13.9-2.8,2.8,2.8,2.8,2.2,2.2,2.8,2.8,2.8-2.8L187,246.6l2.8-2.8L187,241l-2.2-2.2L182,236Zm-27.5,27.9-2.8,2.8L138,280.6l-2.8,2.8,2.8,2.8,2.2,2.2,2.8,2.8,2.8-2.8,13.7-13.9,2.8-2.8-2.8-2.8-2.2-2.2-2.8-2.8Zm-27.4,27.8-2.8,2.8-13.7,13.9-2.8,2.8,2.8,2.8,2.2,2.2,2.8,2.8,2.8-2.8,13.7-13.9,2.8-2.8-2.8-2.8-2.2-2.2-2.8-2.8ZM99.7,319.5l-2.8,2.8L83.2,336.2,80.4,339l2.8,2.8,2.2,2.2,2.8,2.8L91,344l13.7-13.9,2.8-2.8-2.8-2.8-2.2-2.2-2.8-2.8ZM72.3,347.3l-2.8,2.8L55.8,364,53,366.8l2.8,2.8,2.2,2.2,2.8,2.8,2.8-2.8L77.4,358l2.8-2.8-2.8-2.8-2.2-2.2-2.9-2.9Z" transform="translate(359.2 9.2)"/><rect x="357.76" y="54.82" width="14" height="7.1" transform="translate(426.35 286.39) rotate(-45.42)"/><path class="cls-2" d="M367.2,53.7l2.2,2.2-7,7.1-2.2-2.2,7-7.1m0-5.6-2.8,2.8-7,7.1-2.8,2.8,2.9,2.8,2.2,2.2,2.8,2.8,2.8-2.8,7-7.1,2.8-2.8-2.9-2.8L370,50.9l-2.8-2.8Z" transform="translate(359.2 9.2)"/><polygon points="716.5 59.2 738.2 53.2 732.5 75 716.5 59.2"/><path class="cls-2" d="M376.2,46.8l-3.9,15.1L361.2,51l15-4.2m5.6-5.7-6.7,1.8-15,4.1-6.7,1.8,4.9,4.9,11.1,10.9,4.9,4.9,1.7-6.7,3.9-15.1,1.9-6.6Z" transform="translate(359.2 9.2)"/><text class="cls-4" transform="translate(457.72 365.22)"><tspan class="cls-5">T</tspan><tspan x="10.02" y="0">rivial</tspan></text><text class="cls-4" transform="translate(524.26 302.22)">Minor</text><text class="cls-4" transform="translate(587.68 241.22)">M<tspan class="cls-6" x="17.11" y="0">a</tspan><tspan x="30.03" y="0">jor</tspan></text><text class="cls-4" transform="translate(644.08 184.22)">C<tspan class="cls-7" x="15.25" y="0">r</tspan><tspan class="cls-8" x="23.02" y="0">t</tspan><tspan class="cls-9" x="30.93" y="0">i</tspan><tspan class="cls-10" x="36.12" y="0">c</tspan><tspan class="cls-9" x="47.12" y="0">al</tspan></text><text class="cls-4" transform="translate(691.97 122.22)">Blo<tspan class="cls-11" x="30.37" y="0">c</tspan><tspan class="cls-12" x="41.54" y="0">k</tspan><tspan x="51.81" y="0">er</tspan></text><text class="cls-4" transform="translate(384.36 42.22)">F<tspan class="cls-13" x="10.9" y="0">r</tspan><tspan class="cls-14" x="17.98" y="0">e</tspan><tspan class="cls-9" x="30.09" y="0">quency</tspan></text><text class="cls-4" transform="translate(680.06 42.22)"><tspan class="cls-7">S</tspan><tspan class="cls-15" x="12.54" y="0">ev</tspan><tspan x="35.09" y="0">eri</tspan><tspan class="cls-16" x="59.95" y="0">t</tspan><tspan x="68.1" y="0">y</tspan></text><text class="cls-4" transform="translate(667.16 418.22)">Impa<tspan class="cls-14" x="49.81" y="0">c</tspan><tspan class="cls-9" x="60.98" y="0">t</tspan></text></svg>