<svg enable-background="new 0 0 430 430" viewBox="0 0 430 430" xmlns="http://www.w3.org/2000/svg" xmlns:xlink="http://www.w3.org/1999/xlink"><clipPath id="a"><path d="m45.7 46.8h330.4v335.4h-330.4z"/></clipPath><g fill="#fff"><path d="m21.8 12.7h108.7v28.3h-108.7z"/><path d="m316.9 12.7h87v28.3h-87z"/><path d="m327.9 92.7h81.2v28.3h-81.2z"/><path d="m280.8 154.7h73.7v28.3h-73.7z"/><path d="m222.6 211.7h67.3v28.3h-67.3z"/><path d="m160.5 272.7h63.5v28.3h-63.5z"/><path d="m94 335.7h66.5v28.3h-66.5z"/><path d="m305.2 388.7h74.5v28.3h-74.5z"/></g><path d="m35.5 392.6v-344.4h7.1v337.3h337.2v7.1z"/><path d="m40.6 50.2v337.2h337.2v3.1h-340.3v-340.3zm4-4h-4-3.1-4v4 340.4 4h4 340.4 4v-4-3.1-4h-4-333.3v-333.3z" fill="#fff"/><path d="m27.8 54.5 11.2-19.5 11.3 19.5z"/><path d="m39 39 7.8 13.5h-15.6zm0-8-3.5 6-7.8 13.5-3.5 6h6.9 15.6 6.9l-3.5-6-7.6-13.5z" fill="#fff"/><path d="m373.5 377.8 19.5 11.2-19.5 11.3z"/><path d="m375.5 381.2 13.5 7.8-13.5 7.8zm-4-6.9v6.9 15.6 6.9l6-3.5 13.5-7.8 6-3.5-6-3.5-13.5-7.8z" fill="#fff"/><g clip-path="url(#a)"><path d="m39 626.3c-63.4 0-123-24.7-167.8-69.5s-69.5-104.4-69.5-167.8 24.7-123 69.5-167.8 104.4-69.5 167.8-69.5 123 24.7 167.8 69.5 69.5 104.4 69.5 167.8-24.7 123-69.5 167.8-104.4 69.5-167.8 69.5zm0-464.4c-60.7 0-117.7 23.6-160.6 66.5s-66.5 99.9-66.5 160.6 23.6 117.7 66.5 160.6 99.9 66.5 160.6 66.5 117.7-23.6 160.6-66.5 66.5-99.9 66.5-160.6-23.6-117.7-66.5-160.6c-42.9-42.8-99.9-66.5-160.6-66.5z"/><path d="m39 153.7c62.9 0 121.9 24.5 166.4 68.9 44.4 44.4 68.9 103.5 68.9 166.4s-24.4 122-68.9 166.4c-44.4 44.5-103.5 68.9-166.4 68.9s-121.9-24.5-166.4-68.9c-44.4-44.4-68.9-103.5-68.9-166.4s24.5-121.9 68.9-166.4c44.5-44.4 103.6-68.9 166.4-68.9m0 464.4c61.2 0 118.7-23.8 162-67.1s67.1-100.8 67.1-162-23.8-118.7-67.1-162-100.8-67.1-162-67.1-118.7 23.9-162 67.1c-43.3 43.3-67.1 100.8-67.1 162s23.8 118.7 67.1 162 100.8 67.1 162 67.1m0-468.4c-63.9 0-124 24.9-169.2 70.1s-70.1 105.3-70.1 169.2 24.9 124 70.1 169.2 105.3 70.1 169.2 70.1 124-24.9 169.2-70.1 70.1-105.3 70.1-169.2-24.9-124-70.1-169.2-105.3-70.1-169.2-70.1zm0 464.4c-60.1 0-116.6-23.4-159.1-65.9s-65.9-99-65.9-159.1 23.4-116.6 65.9-159.1 99-65.9 159.1-65.9 116.6 23.4 159.1 65.9 65.9 99 65.9 159.1-23.4 116.6-65.9 159.1c-42.4 42.5-99 65.9-159.1 65.9z" fill="#fff"/><path d="m39 540.8c-83.7 0-151.8-68.1-151.8-151.8s68.1-151.8 151.8-151.8 151.8 68.1 151.8 151.8-68.1 151.8-151.8 151.8zm0-293.3c-78 0-141.5 63.5-141.5 141.5s63.5 141.5 141.5 141.5 141.5-63.4 141.5-141.5-63.4-141.5-141.5-141.5z"/><path d="m39 239.2c82.6 0 149.8 67.2 149.8 149.8s-67.2 149.8-149.8 149.8-149.8-67.2-149.8-149.8 67.2-149.8 149.8-149.8m0 293.3c79.1 0 143.5-64.4 143.5-143.5s-64.3-143.5-143.5-143.5-143.5 64.4-143.5 143.5 64.4 143.5 143.5 143.5m0-297.3c-84.8 0-153.8 69-153.8 153.8s69 153.8 153.8 153.8 153.8-69 153.8-153.8-69-153.8-153.8-153.8zm0 293.3c-76.9 0-139.5-62.6-139.5-139.5s62.6-139.5 139.5-139.5 139.5 62.6 139.5 139.5-62.6 139.5-139.5 139.5z" fill="#fff"/><path d="m34 711.9c-86.2 0-167.3-33.6-228.3-94.6s-94.6-142.1-94.6-228.3 33.6-167.3 94.6-228.3 142.1-94.6 228.3-94.6 167.3 33.6 228.3 94.6 94.6 142.1 94.6 228.3-33.6 167.3-94.6 228.3-142.1 94.6-228.3 94.6zm0-635.5c-83.5 0-162 32.5-221 91.6s-91.6 137.5-91.6 221.1c0 83.5 32.5 162 91.6 221.1 59 59 137.5 91.6 221 91.6s162-32.5 221.1-91.6c59-59 91.6-137.5 91.6-221.1s-32.6-162.1-91.6-221.1c-59.1-59.1-137.6-91.6-221.1-91.6z"/><path d="m34 68.2c85.7 0 166.3 33.4 226.9 94s94 141.2 94 226.9-33.4 166.3-94 226.9-141.2 94-226.9 94-166.3-33.4-226.9-94-94-141.2-94-226.9 33.4-166.3 94-226.9c60.6-60.7 141.2-94 226.9-94m0 635.4c84 0 163-32.7 222.5-92.1 59.4-59.4 92.1-138.4 92.1-222.5s-32.7-163-92.1-222.5c-59.5-59.4-138.5-92.1-222.5-92.1s-163 32.7-222.5 92.1-92.1 138.5-92.1 222.5 32.7 163 92.1 222.5c59.5 59.4 138.5 92.1 222.5 92.1m0-639.4c-86.8 0-168.4 33.8-229.7 95.1-61.4 61.4-95.2 142.9-95.2 229.7s33.8 168.4 95.2 229.7c61.4 61.4 142.9 95.2 229.7 95.2s168.4-33.8 229.7-95.2c61.4-61.4 95.2-142.9 95.2-229.7s-33.8-168.4-95.2-229.7c-61.3-61.4-142.9-95.1-229.7-95.1zm0 635.4c-83 0-161-32.3-219.6-91-58.7-58.7-91-136.7-91-219.6 0-83 32.3-161 91-219.6 58.6-58.7 136.6-91 219.6-91s161 32.3 219.6 91c58.7 58.7 91 136.7 91 219.6 0 83-32.3 161-91 219.6-58.6 58.7-136.6 91-219.6 91z" fill="#fff"/><path d="m39 785.2c-53.5 0-105.4-10.5-154.2-31.1-47.2-20-89.5-48.5-125.9-84.9s-64.9-78.8-84.9-125.9c-20.7-48.8-31.1-100.7-31.1-154.2s10.5-105.4 31.1-154.2c20-47.2 48.5-89.5 84.9-125.9s78.8-64.9 125.9-84.9c48.8-20.8 100.7-31.3 154.2-31.3s105.4 10.5 154.2 31.2c47.2 20 89.5 48.5 125.9 84.9s65 78.8 84.9 125.9c20.7 48.8 31.1 100.7 31.1 154.2s-10.5 105.4-31.1 154.2c-20 47.2-48.5 89.5-84.9 125.9s-78.8 65-125.9 84.9c-48.8 20.7-100.7 31.2-154.2 31.2zm0-782.1c-52.1 0-102.6 10.2-150.2 30.3-46 19.4-87.2 47.3-122.7 82.7s-63.3 76.7-82.7 122.7c-20.1 47.6-30.3 98.1-30.3 150.2s10.2 102.6 30.3 150.2c19.4 46 47.3 87.2 82.7 122.7 35.4 35.4 76.7 63.3 122.7 82.7 47.6 20.2 98.1 30.4 150.2 30.4s102.6-10.2 150.2-30.3c46-19.4 87.2-47.3 122.7-82.7 35.4-35.4 63.3-76.7 82.7-122.7 20.2-47.6 30.4-98.2 30.4-150.3s-10.2-102.6-30.3-150.2c-19.4-46-47.3-87.2-82.7-122.7-35.4-35.4-76.7-63.3-122.7-82.7-47.6-20.1-98.2-30.3-150.3-30.3z"/><path d="m39-5.2c53.2 0 104.8 10.4 153.4 31 46.9 19.9 89.1 48.3 125.3 84.5s64.6 78.4 84.5 125.3c20.6 48.6 31 100.2 31 153.4s-10.4 104.8-31 153.4c-19.9 46.9-48.3 89.1-84.5 125.3s-78.4 64.6-125.3 84.5c-48.6 20.6-100.2 31-153.4 31s-104.8-10.4-153.4-31c-46.9-19.9-89.1-48.3-125.3-84.5s-64.6-78.4-84.5-125.3c-20.6-48.6-31-100.2-31-153.4s10.4-104.8 31-153.4c19.9-46.9 48.3-89.1 84.5-125.3s78.4-64.6 125.3-84.5c48.6-20.5 100.2-31 153.4-31m0 782.2c52.4 0 103.2-10.3 151-30.5 46.2-19.5 87.7-47.5 123.3-83.1s63.6-77.1 83.1-123.3c20.2-47.8 30.5-98.6 30.5-151s-10.3-103.2-30.5-151c-19.5-46.2-47.5-87.7-83.1-123.3-35.6-35.7-77.1-63.7-123.3-83.2-47.8-20.3-98.6-30.5-151-30.5s-103.2 10.2-151 30.5c-46.2 19.5-87.7 47.5-123.3 83.1s-63.6 77.1-83.1 123.3c-20.2 47.8-30.5 98.6-30.5 151s10.3 103.2 30.5 151c19.5 46.2 47.5 87.7 83.1 123.3s77.1 63.6 123.3 83.1c47.8 20.3 98.6 30.6 151 30.6m0-786.2c-53.8 0-105.9 10.5-155 31.3-47.4 20.1-90 48.8-126.6 85.3-36.6 36.6-65.3 79.1-85.3 126.6-20.8 49.1-31.3 101.2-31.3 155s10.5 105.9 31.3 155c20.1 47.4 48.8 90 85.3 126.6 36.6 36.6 79.2 65.3 126.6 85.3 49.1 20.8 101.2 31.3 155 31.3s105.9-10.5 155-31.3c47.4-20.1 90-48.8 126.6-85.3 36.6-36.6 65.3-79.2 85.3-126.6 20.8-49.1 31.3-101.2 31.3-155s-10.5-105.9-31.3-155c-20.1-47.4-48.8-90-85.3-126.6-36.6-36.5-79.2-65.2-126.6-85.3-49.1-20.7-101.2-31.3-155-31.3zm0 782.2c-51.8 0-102.1-10.2-149.4-30.2-45.7-19.3-86.8-47-122-82.3-35.3-35.3-62.9-76.3-82.3-122-20-47.3-30.2-97.6-30.2-149.4s10.2-102.1 30.2-149.4c19.3-45.7 47-86.8 82.3-122 35.3-35.3 76.3-62.9 122-82.3 47.3-20.2 97.6-30.3 149.4-30.3s102.1 10.2 149.4 30.2c45.7 19.3 86.8 47 122 82.3 35.3 35.3 62.9 76.3 82.3 122 20 47.3 30.2 97.6 30.2 149.4s-10.2 102.1-30.2 149.4c-19.3 45.7-47 86.8-82.3 122-35.3 35.3-76.3 62.9-122 82.3-47.3 20.1-97.6 30.3-149.4 30.3z" fill="#fff"/></g><path d="m35.5 381.9h14v7.1h-14z" transform="matrix(.7019 -.7123 .7123 .7019 -261.8701 145.1903)"/><path d="m44.9 380.8 2.2 2.2-7 7.1-2.2-2.2zm0-5.7-2.8 2.8-7 7.1-2.8 2.8 2.8 2.8 2.2 2.2 2.8 2.8 2.8-2.8 7-7.1 2.8-2.8-2.8-2.8-2.2-2.2z" fill="#fff"/><path d="m55.8 366.9 16.5-16.8 5.1 5-16.5 16.8zm27.4-27.8 16.5-16.8 5.1 5-16.5 16.8zm27.4-27.8 16.5-16.8 5.1 5-16.5 16.8zm27.4-27.9 16.5-16.8 5.1 5-16.5 16.8zm27.5-27.8 16.5-16.8 5.1 5-16.5 16.8zm27.4-27.8 16.5-16.8 5.1 5-16.5 16.8zm27.4-27.8 16.5-16.8 5.1 5-16.5 16.8zm27.4-27.8 16.5-16.8 5.1 5-16.5 16.8zm27.4-27.9 16.5-16.8 5.1 5-16.5 16.8zm27.4-27.8 16.5-16.7 5.1 5-16.5 16.8zm27.4-27.8 16.5-16.8 5.1 5-16.5 16.8z"/><path d="m346.5 74.8 2.2 2.2-13.7 13.9-2.2-2.2zm-27.4 27.8 2.2 2.2-13.7 13.9-2.2-2.2zm-27.5 27.8 2.2 2.2-13.7 13.9-2.2-2.2zm-27.4 27.8 2.2 2.2-13.7 13.9-2.2-2.2zm-27.4 27.8 2.2 2.2-13.7 13.9-2.2-2.2zm-27.4 27.9 2.2 2.2-13.7 13.9-2.2-2.2zm-27.4 27.8 2.2 2.2-13.7 13.9-2.2-2.2zm-27.4 27.8 2.2 2.2-13.7 13.9-2.2-2.2zm-27.4 27.8 2.2 2.2-13.7 13.9-2.2-2.2zm-27.4 27.9 2.2 2.2-13.7 13.9-2.2-2.2zm-27.5 27.8 2.2 2.2-13.7 13.9-2.2-2.2zm274.1-283.9-2.8 2.8-13.7 13.9-2.8 2.8 2.8 2.8 2.2 2.2 2.8 2.8 2.8-2.8 13.7-13.9 2.8-2.8-2.9-2.8-2.2-2.2zm-27.4 27.8-2.8 2.8-13.7 13.9-2.8 2.8 2.9 2.8 2.2 2.2 2.8 2.8 2.8-2.8 13.7-13.9 2.8-2.8-2.8-2.8-2.2-2.2zm-27.4 27.8-2.8 2.8-13.7 13.9-2.8 2.8 2.8 2.8 2.2 2.2 2.8 2.8 2.8-2.8 13.7-13.9 2.8-2.8-2.9-2.8-2.2-2.2zm-27.4 27.9-2.8 2.8-13.7 13.9-2.8 2.8 2.9 2.8 2.2 2.2 2.8 2.8 2.8-2.8 13.7-13.9 2.8-2.8-2.9-2.8-2.2-2.2zm-27.4 27.8-2.8 2.8-13.7 13.9-2.8 2.8 2.8 2.8 2.2 2.2 2.8 2.8 2.8-2.8 13.7-13.9 2.8-2.8-2.8-2.8-2.2-2.2zm-27.4 27.8-2.8 2.8-13.8 14-2.8 2.8 2.8 2.8 2.2 2.2 2.8 2.8 2.8-2.8 13.7-13.9 2.8-2.8-2.8-2.8-2.2-2.2zm-27.4 27.8-2.8 2.8-13.7 13.9-2.8 2.8 2.8 2.8 2.2 2.2 2.8 2.8 2.8-2.8 13.7-13.9 2.8-2.8-2.8-2.8-2.2-2.2zm-27.5 27.9-2.8 2.8-13.7 13.9-2.8 2.8 2.8 2.8 2.2 2.2 2.8 2.8 2.8-2.8 13.7-13.9 2.8-2.8-2.8-2.8-2.2-2.2zm-27.4 27.8-2.8 2.8-13.7 13.9-2.8 2.8 2.8 2.8 2.2 2.2 2.8 2.8 2.8-2.8 13.7-13.9 2.8-2.8-2.8-2.8-2.2-2.2zm-27.4 27.8-2.8 2.8-13.7 13.9-2.8 2.8 2.8 2.8 2.2 2.2 2.8 2.8 2.8-2.8 13.7-13.9 2.8-2.8-2.8-2.8-2.2-2.2zm-27.4 27.8-2.8 2.8-13.7 13.9-2.8 2.8 2.8 2.8 2.2 2.2 2.8 2.8 2.8-2.8 13.8-13.8 2.8-2.8-2.8-2.8-2.2-2.2z" fill="#fff"/><path d="m357.8 54.8h14v7.1h-14z" transform="matrix(.7019 -.7122 .7122 .7019 67.1479 277.2274)"/><path d="m367.2 53.7 2.2 2.2-7 7.1-2.2-2.2zm0-5.6-2.8 2.8-7 7.1-2.8 2.8 2.9 2.8 2.2 2.2 2.8 2.8 2.8-2.8 7-7.1 2.8-2.8-2.9-2.8-2.2-2.2z" fill="#fff"/><path d="m357.3 50 21.7-6-5.7 21.8z"/><path d="m376.2 46.8-3.9 15.1-11.1-10.9zm5.6-5.7-6.7 1.8-15 4.1-6.7 1.8 4.9 4.9 11.1 10.9 4.9 4.9 1.7-6.7 3.9-15.1z" fill="#fff"/><text fill="#1d1d1b" font-family="'Gilroy-Bold'" font-size="21" transform="translate(98.522 356.0161)">Trivial</text><text fill="#1d1d1b" font-family="'Gilroy-Bold'" font-size="21" transform="translate(165.0551 293.0161)">Minor</text><text fill="#1d1d1b" font-family="'Gilroy-Bold'" font-size="21" transform="translate(228.4849 232.0161)">Major</text><text fill="#1d1d1b" font-family="'Gilroy-Bold'" font-size="21" transform="translate(284.8813 175.0161)">Crtical</text><text fill="#1d1d1b" font-family="'Gilroy-Bold'" font-size="21" transform="translate(332.768 113.0161)">Blocker</text><text fill="#1d1d1b" font-family="'Gilroy-Bold'" font-size="21" transform="translate(25.1561 33.0161)">Frequency</text><text fill="#1d1d1b" font-family="'Gilroy-Bold'" font-size="21" transform="translate(320.8559 33.0161)">Severity</text><text fill="#1d1d1b" font-family="'Gilroy-Bold'" font-size="21" transform="translate(307.9575 409.0161)">Impact</text></svg>