<?xml version="1.0" encoding="utf-8"?>
<!-- Generator: Adobe Illustrator 26.0.3, SVG Export Plug-In . SVG Version: 6.00 Build 0)  -->
<svg version="1.1" id="Layer_1" xmlns="http://www.w3.org/2000/svg" xmlns:xlink="http://www.w3.org/1999/xlink" x="0px" y="0px"
	 viewBox="0 0 430 430" style="enable-background:new 0 0 430 430;" xml:space="preserve">
<style type="text/css">
	.st0{fill:#FFFFFF;}
	.st1{clip-path:url(#SVGID_00000170241603869296030140000003214737319349653655_);}
	.st2{fill:#1D1D1B;}
	.st3{font-family:'Gilroy-Bold';}
	.st4{font-size:21px;}
</style>
<rect x="21.8" y="12.7" class="st0" width="108.7" height="28.3"/>
<rect x="316.9" y="12.7" class="st0" width="87" height="28.3"/>
<rect x="327.9" y="92.7" class="st0" width="81.2" height="28.3"/>
<rect x="280.8" y="154.7" class="st0" width="73.7" height="28.3"/>
<rect x="222.6" y="211.7" class="st0" width="67.3" height="28.3"/>
<rect x="160.5" y="272.7" class="st0" width="63.5" height="28.3"/>
<rect x="94" y="335.7" class="st0" width="66.5" height="28.3"/>
<rect x="305.2" y="388.7" class="st0" width="74.5" height="28.3"/>
<g>
	<g>
		<g>
			<g>
				<polygon points="35.5,392.6 35.5,48.2 42.6,48.2 42.6,385.5 379.8,385.5 379.8,392.6 				"/>
				<path class="st0" d="M40.6,50.2v337.2h337.2v3.1H37.5V50.2H40.6 M44.6,46.2h-4h-3.1h-4v4v340.4v4h4h340.4h4v-4v-3.1v-4h-4H44.6
					V50.2V46.2L44.6,46.2z"/>
			</g>
			<g>
				<g>
					<polygon points="27.8,54.5 39,35 50.3,54.5 					"/>
					<path class="st0" d="M39,39l7.8,13.5H31.2L39,39 M39,31l-3.5,6l-7.8,13.5l-3.5,6h6.9h15.6h6.9l-3.5-6L42.5,37L39,31L39,31z"/>
				</g>
			</g>
			<g>
				<g>
					<polygon points="373.5,377.8 393,389 373.5,400.3 					"/>
					<path class="st0" d="M375.5,381.2L389,389l-13.5,7.8V381.2 M371.5,374.3v6.9v15.6v6.9l6-3.5l13.5-7.8l6-3.5l-6-3.5l-13.5-7.8
						L371.5,374.3L371.5,374.3z"/>
				</g>
			</g>
		</g>
	</g>
	<g>
		<g>
			<defs>
				<rect id="SVGID_1_" x="45.7" y="46.8" width="330.4" height="335.4"/>
			</defs>
			<clipPath id="SVGID_00000017515565765649327490000006106296384562041529_">
				<use xlink:href="#SVGID_1_"  style="overflow:visible;"/>
			</clipPath>
			<g style="clip-path:url(#SVGID_00000017515565765649327490000006106296384562041529_);">
				<g>
					<path d="M39,626.3c-63.4,0-123-24.7-167.8-69.5c-44.8-44.8-69.5-104.4-69.5-167.8s24.7-123,69.5-167.8
						C-84,176.4-24.4,151.7,39,151.7s123,24.7,167.8,69.5c44.8,44.8,69.5,104.4,69.5,167.8s-24.7,123-69.5,167.8
						C162,601.6,102.4,626.3,39,626.3z M39,161.9c-60.7,0-117.7,23.6-160.6,66.5c-42.9,42.9-66.5,99.9-66.5,160.6
						s23.6,117.7,66.5,160.6s99.9,66.5,160.6,66.5s117.7-23.6,160.6-66.5c42.9-42.9,66.5-99.9,66.5-160.6s-23.6-117.7-66.5-160.6
						C156.7,185.6,99.7,161.9,39,161.9z"/>
					<path class="st0" d="M39,153.7c62.9,0,121.9,24.5,166.4,68.9c44.4,44.4,68.9,103.5,68.9,166.4S249.9,511,205.4,555.4
						C161,599.9,101.9,624.3,39,624.3c-62.9,0-121.9-24.5-166.4-68.9c-44.4-44.4-68.9-103.5-68.9-166.4s24.5-121.9,68.9-166.4
						C-82.9,178.2-23.8,153.7,39,153.7 M39,618.1c61.2,0,118.7-23.8,162-67.1c43.3-43.3,67.1-100.8,67.1-162S244.3,270.3,201,227
						c-43.3-43.3-100.8-67.1-162-67.1S-79.7,183.8-123,227c-43.3,43.3-67.1,100.8-67.1,162s23.8,118.7,67.1,162
						C-79.7,594.3-22.2,618.1,39,618.1 M39,149.7c-63.9,0-124,24.9-169.2,70.1c-45.2,45.2-70.1,105.3-70.1,169.2
						s24.9,124,70.1,169.2C-85,603.4-24.9,628.3,39,628.3c63.9,0,124-24.9,169.2-70.1c45.2-45.2,70.1-105.3,70.1-169.2
						s-24.9-124-70.1-169.2C163,174.6,102.9,149.7,39,149.7L39,149.7z M39,614.1c-60.1,0-116.6-23.4-159.1-65.9
						c-42.5-42.5-65.9-99-65.9-159.1c0-60.1,23.4-116.6,65.9-159.1c42.5-42.5,99-65.9,159.1-65.9s116.6,23.4,159.1,65.9
						c42.5,42.5,65.9,99,65.9,159.1c0,60.1-23.4,116.6-65.9,159.1C155.7,590.7,99.1,614.1,39,614.1L39,614.1z"/>
				</g>
				<g>
					<path d="M39,540.8c-83.7,0-151.8-68.1-151.8-151.8S-44.7,237.2,39,237.2S190.8,305.3,190.8,389S122.7,540.8,39,540.8z
						 M39,247.5c-78,0-141.5,63.5-141.5,141.5S-39,530.5,39,530.5S180.5,467.1,180.5,389S117.1,247.5,39,247.5z"/>
					<path class="st0" d="M39,239.2c82.6,0,149.8,67.2,149.8,149.8S121.6,538.8,39,538.8S-110.8,471.6-110.8,389
						S-43.6,239.2,39,239.2 M39,532.5c79.1,0,143.5-64.4,143.5-143.5S118.2,245.5,39,245.5S-104.5,309.9-104.5,389
						S-40.1,532.5,39,532.5 M39,235.2c-84.8,0-153.8,69-153.8,153.8s69,153.8,153.8,153.8s153.8-69,153.8-153.8
						S123.8,235.2,39,235.2L39,235.2z M39,528.5c-76.9,0-139.5-62.6-139.5-139.5S-37.9,249.5,39,249.5S178.5,312.1,178.5,389
						S115.9,528.5,39,528.5L39,528.5z"/>
				</g>
				<g>
					<path d="M34,711.9c-86.2,0-167.3-33.6-228.3-94.6c-61-61-94.6-142.1-94.6-228.3s33.6-167.3,94.6-228.3
						c61-61,142.1-94.6,228.3-94.6s167.3,33.6,228.3,94.6c61,61,94.6,142.1,94.6,228.3s-33.6,167.3-94.6,228.3
						C201.3,678.3,120.2,711.9,34,711.9z M34,76.4c-83.5,0-162,32.5-221,91.6s-91.6,137.5-91.6,221.1c0,83.5,32.5,162,91.6,221.1
						c59,59,137.5,91.6,221,91.6c83.5,0,162-32.5,221.1-91.6c59-59,91.6-137.5,91.6-221.1S314.1,227,255.1,168
						C196,108.9,117.5,76.4,34,76.4z"/>
					<path class="st0" d="M34,68.2c85.7,0,166.3,33.4,226.9,94c60.6,60.6,94,141.2,94,226.9s-33.4,166.3-94,226.9
						c-60.6,60.6-141.2,94-226.9,94c-85.7,0-166.3-33.4-226.9-94c-60.6-60.6-94-141.2-94-226.9s33.4-166.3,94-226.9
						C-132.3,101.5-51.7,68.2,34,68.2 M34,703.6c84,0,163-32.7,222.5-92.1c59.4-59.4,92.1-138.4,92.1-222.5s-32.7-163-92.1-222.5
						C197,107.1,118,74.4,34,74.4c-84,0-163,32.7-222.5,92.1S-280.6,305-280.6,389s32.7,163,92.1,222.5
						C-129,670.9-50,703.6,34,703.6 M34,64.2c-86.8,0-168.4,33.8-229.7,95.1c-61.4,61.4-95.2,142.9-95.2,229.7
						s33.8,168.4,95.2,229.7c61.4,61.4,142.9,95.2,229.7,95.2s168.4-33.8,229.7-95.2c61.4-61.4,95.2-142.9,95.2-229.7
						s-33.8-168.4-95.2-229.7C202.4,97.9,120.8,64.2,34,64.2L34,64.2z M34,699.6c-83,0-161-32.3-219.6-91
						c-58.7-58.7-91-136.7-91-219.6c0-83,32.3-161,91-219.6C-127,110.7-49,78.4,34,78.4c83,0,161,32.3,219.6,91
						c58.7,58.7,91,136.7,91,219.6c0,83-32.3,161-91,219.6C195,667.3,117,699.6,34,699.6L34,699.6z"/>
				</g>
				<g>
					<path d="M39,785.2c-53.5,0-105.4-10.5-154.2-31.1c-47.2-20-89.5-48.5-125.9-84.9c-36.4-36.4-64.9-78.8-84.9-125.9
						c-20.7-48.8-31.1-100.7-31.1-154.2s10.5-105.4,31.1-154.2c20-47.2,48.5-89.5,84.9-125.9s78.8-64.9,125.9-84.9
						C-66.4,3.3-14.5-7.2,39-7.2S144.4,3.3,193.2,24c47.2,20,89.5,48.5,125.9,84.9c36.4,36.4,65,78.8,84.9,125.9
						c20.7,48.8,31.1,100.7,31.1,154.2s-10.5,105.4-31.1,154.2c-20,47.2-48.5,89.5-84.9,125.9c-36.4,36.4-78.8,65-125.9,84.9
						C144.4,774.7,92.5,785.2,39,785.2z M39,3.1c-52.1,0-102.6,10.2-150.2,30.3c-46,19.4-87.2,47.3-122.7,82.7
						s-63.3,76.7-82.7,122.7c-20.1,47.6-30.3,98.1-30.3,150.2s10.2,102.6,30.3,150.2c19.4,46,47.3,87.2,82.7,122.7
						c35.4,35.4,76.7,63.3,122.7,82.7C-63.6,764.8-13.1,775,39,775s102.6-10.2,150.2-30.3c46-19.4,87.2-47.3,122.7-82.7
						c35.4-35.4,63.3-76.7,82.7-122.7C414.8,491.7,425,441.1,425,389s-10.2-102.6-30.3-150.2c-19.4-46-47.3-87.2-82.7-122.7
						c-35.4-35.4-76.7-63.3-122.7-82.7C141.7,13.3,91.1,3.1,39,3.1z"/>
					<path class="st0" d="M39-5.2c53.2,0,104.8,10.4,153.4,31c46.9,19.9,89.1,48.3,125.3,84.5c36.2,36.2,64.6,78.4,84.5,125.3
						c20.6,48.6,31,100.2,31,153.4s-10.4,104.8-31,153.4c-19.9,46.9-48.3,89.1-84.5,125.3c-36.2,36.2-78.4,64.6-125.3,84.5
						c-48.6,20.6-100.2,31-153.4,31c-53.2,0-104.8-10.4-153.4-31c-46.9-19.9-89.1-48.3-125.3-84.5c-36.2-36.2-64.6-78.4-84.5-125.3
						c-20.6-48.6-31-100.2-31-153.4s10.4-104.8,31-153.4c19.9-46.9,48.3-89.1,84.5-125.3c36.2-36.2,78.4-64.6,125.3-84.5
						C-65.8,5.3-14.2-5.2,39-5.2 M39,777c52.4,0,103.2-10.3,151-30.5c46.2-19.5,87.7-47.5,123.3-83.1
						c35.6-35.6,63.6-77.1,83.1-123.3c20.2-47.8,30.5-98.6,30.5-151c0-52.4-10.3-103.2-30.5-151c-19.5-46.2-47.5-87.7-83.1-123.3
						C277.7,79.1,236.2,51.1,190,31.6C142.2,11.3,91.4,1.1,39,1.1S-64.2,11.3-112,31.6c-46.2,19.5-87.7,47.5-123.3,83.1
						s-63.6,77.1-83.1,123.3c-20.2,47.8-30.5,98.6-30.5,151c0,52.4,10.3,103.2,30.5,151c19.5,46.2,47.5,87.7,83.1,123.3
						c35.6,35.6,77.1,63.6,123.3,83.1C-64.2,766.7-13.4,777,39,777 M39-9.2c-53.8,0-105.9,10.5-155,31.3
						c-47.4,20.1-90,48.8-126.6,85.3c-36.6,36.6-65.3,79.1-85.3,126.6c-20.8,49.1-31.3,101.2-31.3,155s10.5,105.9,31.3,155
						c20.1,47.4,48.8,90,85.3,126.6c36.6,36.6,79.2,65.3,126.6,85.3c49.1,20.8,101.2,31.3,155,31.3s105.9-10.5,155-31.3
						c47.4-20.1,90-48.8,126.6-85.3c36.6-36.6,65.3-79.2,85.3-126.6c20.8-49.1,31.3-101.2,31.3-155s-10.5-105.9-31.3-155
						c-20.1-47.4-48.8-90-85.3-126.6C284,70.9,241.4,42.2,194,22.1C144.9,1.4,92.8-9.2,39-9.2L39-9.2z M39,773
						c-51.8,0-102.1-10.2-149.4-30.2c-45.7-19.3-86.8-47-122-82.3c-35.3-35.3-62.9-76.3-82.3-122c-20-47.3-30.2-97.6-30.2-149.4
						s10.2-102.1,30.2-149.4c19.3-45.7,47-86.8,82.3-122c35.3-35.3,76.3-62.9,122-82.3C-63.1,15.2-12.8,5.1,39,5.1
						s102.1,10.2,149.4,30.2c45.7,19.3,86.8,47,122,82.3c35.3,35.3,62.9,76.3,82.3,122c20,47.3,30.2,97.6,30.2,149.4
						s-10.2,102.1-30.2,149.4c-19.3,45.7-47,86.8-82.3,122c-35.3,35.3-76.3,62.9-122,82.3C141.1,762.8,90.8,773,39,773L39,773z"/>
				</g>
			</g>
		</g>
	</g>
	<g>
		<g>
			<g>
				<rect x="35.5" y="381.9" transform="matrix(0.7019 -0.7123 0.7123 0.7019 -261.8701 145.1903)" width="14" height="7.1"/>
				<path class="st0" d="M44.9,380.8l2.2,2.2l-7,7.1l-2.2-2.2L44.9,380.8 M44.9,375.1l-2.8,2.8l-7,7.1l-2.8,2.8l2.8,2.8l2.2,2.2
					l2.8,2.8l2.8-2.8l7-7.1l2.8-2.8l-2.8-2.8l-2.2-2.2L44.9,375.1L44.9,375.1z"/>
			</g>
			<g>
				<path d="M55.8,366.9l16.5-16.8l5.1,5l-16.5,16.8L55.8,366.9z M83.2,339.1l16.5-16.8l5.1,5l-16.5,16.8L83.2,339.1z M110.6,311.3
					l16.5-16.8l5.1,5l-16.5,16.8L110.6,311.3z M138,283.4l16.5-16.8l5.1,5l-16.5,16.8L138,283.4z M165.5,255.6l16.5-16.8l5.1,5
					l-16.5,16.8L165.5,255.6z M192.9,227.8l16.5-16.8l5.1,5l-16.5,16.8L192.9,227.8z M220.3,200l16.5-16.8l5.1,5L225.4,205
					L220.3,200z M247.7,172.2l16.5-16.8l5.1,5l-16.5,16.8L247.7,172.2z M275.1,144.3l16.5-16.8l5.1,5l-16.5,16.8L275.1,144.3z
					 M302.5,116.5L319,99.8l5.1,5l-16.5,16.8L302.5,116.5z M329.9,88.7l16.5-16.8l5.1,5L335,93.7L329.9,88.7z"/>
				<path class="st0" d="M346.5,74.8l2.2,2.2L335,90.9l-2.2-2.2L346.5,74.8 M319.1,102.6l2.2,2.2l-13.7,13.9l-2.2-2.2L319.1,102.6
					 M291.6,130.4l2.2,2.2l-13.7,13.9l-2.2-2.2L291.6,130.4 M264.2,158.2l2.2,2.2l-13.7,13.9l-2.2-2.2L264.2,158.2 M236.8,186
					l2.2,2.2l-13.7,13.9l-2.2-2.2L236.8,186 M209.4,213.9l2.2,2.2L197.9,230l-2.2-2.2L209.4,213.9 M182,241.7l2.2,2.2l-13.7,13.9
					l-2.2-2.2L182,241.7 M154.6,269.5l2.2,2.2l-13.7,13.9l-2.2-2.2L154.6,269.5 M127.2,297.3l2.2,2.2l-13.7,13.9l-2.2-2.2
					L127.2,297.3 M99.8,325.2l2.2,2.2l-13.7,13.9l-2.2-2.2L99.8,325.2 M72.3,353l2.2,2.2l-13.7,13.9l-2.2-2.2L72.3,353 M346.4,69.1
					l-2.8,2.8l-13.7,13.9l-2.8,2.8l2.8,2.8l2.2,2.2l2.8,2.8l2.8-2.8l13.7-13.9l2.8-2.8l-2.9-2.8l-2.2-2.2L346.4,69.1L346.4,69.1z
					 M319,96.9l-2.8,2.8l-13.7,13.9l-2.8,2.8l2.9,2.8l2.2,2.2l2.8,2.8l2.8-2.8l13.7-13.9l2.8-2.8l-2.8-2.8l-2.2-2.2L319,96.9
					L319,96.9z M291.6,124.7l-2.8,2.8l-13.7,13.9l-2.8,2.8l2.8,2.8l2.2,2.2l2.8,2.8l2.8-2.8l13.7-13.9l2.8-2.8l-2.9-2.8l-2.2-2.2
					L291.6,124.7L291.6,124.7z M264.2,152.6l-2.8,2.8l-13.7,13.9l-2.8,2.8l2.9,2.8l2.2,2.2l2.8,2.8l2.8-2.8l13.7-13.9l2.8-2.8
					l-2.9-2.8l-2.2-2.2L264.2,152.6L264.2,152.6z M236.8,180.4l-2.8,2.8l-13.7,13.9l-2.8,2.8l2.8,2.8l2.2,2.2l2.8,2.8l2.8-2.8
					l13.7-13.9l2.8-2.8l-2.8-2.8l-2.2-2.2L236.8,180.4L236.8,180.4z M209.4,208.2l-2.8,2.8L192.8,225l-2.8,2.8l2.8,2.8l2.2,2.2
					l2.8,2.8l2.8-2.8l13.7-13.9l2.8-2.8l-2.8-2.8l-2.2-2.2L209.4,208.2L209.4,208.2z M182,236l-2.8,2.8l-13.7,13.9l-2.8,2.8l2.8,2.8
					l2.2,2.2l2.8,2.8l2.8-2.8l13.7-13.9l2.8-2.8L187,241l-2.2-2.2L182,236L182,236z M154.5,263.9l-2.8,2.8L138,280.6l-2.8,2.8
					l2.8,2.8l2.2,2.2l2.8,2.8l2.8-2.8l13.7-13.9l2.8-2.8l-2.8-2.8l-2.2-2.2L154.5,263.9L154.5,263.9z M127.1,291.7l-2.8,2.8
					l-13.7,13.9l-2.8,2.8l2.8,2.8l2.2,2.2l2.8,2.8l2.8-2.8l13.7-13.9l2.8-2.8l-2.8-2.8l-2.2-2.2L127.1,291.7L127.1,291.7z
					 M99.7,319.5l-2.8,2.8l-13.7,13.9l-2.8,2.8l2.8,2.8l2.2,2.2l2.8,2.8l2.8-2.8l13.7-13.9l2.8-2.8l-2.8-2.8l-2.2-2.2L99.7,319.5
					L99.7,319.5z M72.3,347.3l-2.8,2.8l-13.7,13.9l-2.8,2.8l2.8,2.8l2.2,2.2l2.8,2.8l2.8-2.8L77.4,358l2.8-2.8l-2.8-2.8l-2.2-2.2
					L72.3,347.3L72.3,347.3z"/>
			</g>
			<g>
				<rect x="357.8" y="54.8" transform="matrix(0.7019 -0.7122 0.7122 0.7019 67.1479 277.2274)" width="14" height="7.1"/>
				<path class="st0" d="M367.2,53.7l2.2,2.2l-7,7.1l-2.2-2.2L367.2,53.7 M367.2,48.1l-2.8,2.8l-7,7.1l-2.8,2.8l2.9,2.8l2.2,2.2
					l2.8,2.8l2.8-2.8l7-7.1l2.8-2.8l-2.9-2.8l-2.2-2.2L367.2,48.1L367.2,48.1z"/>
			</g>
			<g>
				<g>
					<polygon points="357.3,50 379,44 373.3,65.8 					"/>
					<path class="st0" d="M376.2,46.8l-3.9,15.1L361.2,51L376.2,46.8 M381.8,41.1l-6.7,1.8l-15,4.1l-6.7,1.8l4.9,4.9l11.1,10.9
						l4.9,4.9l1.7-6.7l3.9-15.1L381.8,41.1L381.8,41.1z"/>
				</g>
			</g>
		</g>
	</g>
</g>
<text transform="matrix(1 0 0 1 98.522 356.0161)" class="st2 st3 st4">Trivial</text>
<text transform="matrix(1 0 0 1 165.0551 293.0161)" class="st2 st3 st4">Minor</text>
<text transform="matrix(1 0 0 1 228.4849 232.0161)" class="st2 st3 st4">Major</text>
<text transform="matrix(1 0 0 1 284.8813 175.0161)" class="st2 st3 st4">Crtical</text>
<text transform="matrix(1 0 0 1 332.768 113.0161)" class="st2 st3 st4">Blocker</text>
<text transform="matrix(1 0 0 1 25.1561 33.0161)" class="st2 st3 st4">Frequency</text>
<text transform="matrix(1 0 0 1 320.8559 33.0161)" class="st2 st3 st4">Severity</text>
<g>
	<text transform="matrix(1 0 0 1 307.9575 409.0161)" class="st2 st3 st4">Impact</text>
</g>
</svg>
