<?xml version="1.0" encoding="utf-8"?>
<!-- Generator: Adobe Illustrator 16.0.4, SVG Export Plug-In . SVG Version: 6.00 Build 0)  -->
<!DOCTYPE svg PUBLIC "-//W3C//DTD SVG 1.1//EN" "http://www.w3.org/Graphics/SVG/1.1/DTD/svg11.dtd">
<svg version="1.1" id="Layer_1" xmlns="http://www.w3.org/2000/svg" xmlns:xlink="http://www.w3.org/1999/xlink" x="0px" y="0px"
	 width="400px" height="400px" viewBox="0 0 400 400" enable-background="new 0 0 400 400" xml:space="preserve">
<g>
	<g>
		<g>
			<polyline fill="none" stroke="#000000" stroke-width="3.125" stroke-miterlimit="10" points="24,35.212 24,374 362.788,374 			
				"/>
			<g>
				<polygon points="16.209,37.492 23.999,24 31.791,37.492 				"/>
			</g>
			<g>
				<polygon points="360.508,381.79 374,374.001 360.508,366.21 				"/>
			</g>
		</g>
	</g>
	<g>
		<defs>
			<rect id="SVGID_1_" x="30.72" y="31.821" width="330.447" height="335.357"/>
		</defs>
		<clipPath id="SVGID_2_">
			<use xlink:href="#SVGID_1_"  overflow="visible"/>
		</clipPath>
		<g clip-path="url(#SVGID_2_)">
			<circle fill="none" stroke="#000000" stroke-width="6.25" stroke-miterlimit="10" cx="24" cy="374" r="232.193"/>
			<circle fill="none" stroke="#000000" stroke-width="6.25" stroke-miterlimit="10" cx="24" cy="374" r="146.648"/>
			<circle fill="none" stroke="#000000" stroke-width="6.25" stroke-miterlimit="10" cx="18.988" cy="374" r="317.737"/>
			<circle fill="none" stroke="#000000" stroke-width="6.25" stroke-miterlimit="10" cx="24" cy="374" r="391.062"/>
		</g>
	</g>
	<g>
		<g>
			<line fill="none" stroke="#000000" stroke-width="3.125" stroke-miterlimit="10" x1="24" y1="374" x2="31.019" y2="366.877"/>
			
				<line fill="none" stroke="#000000" stroke-width="3.125" stroke-miterlimit="10" stroke-dasharray="19.5292,19.5292" x1="44.726" y1="352.966" x2="339.426" y2="53.886"/>
			
				<line fill="none" stroke="#000000" stroke-width="3.125" stroke-miterlimit="10" x1="346.278" y1="46.931" x2="353.298" y2="39.808"/>
			<g>
				<polygon points="357.246,46.899 361.168,31.822 346.148,35.964 				"/>
			</g>
		</g>
	</g>
</g>
<text transform="matrix(1 0 0 1 83.5059 341)" fill="#1D1D1B" font-family="'MyriadPro-Bold'" font-size="21">Trivial</text>
<text transform="matrix(1 0 0 1 150.0391 278)" fill="#1D1D1B" font-family="'MyriadPro-Bold'" font-size="21">Minor</text>
<text transform="matrix(1 0 0 1 213.4688 217)" fill="#1D1D1B" font-family="'MyriadPro-Bold'" font-size="21">Major</text>
<text transform="matrix(1 0 0 1 269.8652 160)" fill="#1D1D1B" font-family="'MyriadPro-Bold'" font-size="21">Crtical</text>
<text transform="matrix(1 0 0 1 317.752 98)" fill="#1D1D1B" font-family="'MyriadPro-Bold'" font-size="21">Blocker</text>
<text transform="matrix(1 0 0 1 10.1401 18)" fill="#1D1D1B" font-family="'MyriadPro-Bold'" font-size="21">Frequency</text>
<text transform="matrix(1 0 0 1 305.8398 18)" fill="#1D1D1B" font-family="'MyriadPro-Bold'" font-size="21">Severity</text>
<g>
	<text transform="matrix(1 0 0 1 292.9414 394)" fill="#1D1D1B" font-family="'MyriadPro-Bold'" font-size="21">Impact</text>
</g>
</svg>
